<svg version="1.1" id="Layer_1" xmlns="http://www.w3.org/2000/svg" xmlns:xlink="http://www.w3.org/1999/xlink" x="0px" y="0px"
	 viewBox="0 0 800 200" style="enable-background:new 0 0 800 200;" xml:space="preserve">
<style type="text/css">
	.st0{fill:#FEDB44;}
</style>
<g id="XMLID_1_">
	<path id="XMLID_3_" class="st0" d="M113.5,161.8L103,114.7l-5.2,16.5v30.7h-26V32.6h26v58.3l14.1-58.3h24.7l-16.5,59.3l19.2,69.9
		H113.5z"/>
	<path id="XMLID_5_" class="st0" d="M179.6,161.8l-1.6-20.2h-11.6l-2.4,20.2H141l17.1-129.2h30.8l17.4,129.2H179.6z M173.3,76.2
		l-4.8,42.5h8.1L173.3,76.2z"/>
	<path id="XMLID_8_" class="st0" d="M258.2,161.8l-21.8-65.7v65.7h-21.6V32.6h23.6l20.8,66.9V32.6h21.6v129.2H258.2z"/>
	<path id="XMLID_10_" class="st0" d="M334,161.8H310L288.9,32.6h25.7l7.9,73.8l9-73.8h23.6L334,161.8z"/>
	<path id="XMLID_12_" class="st0" d="M390.2,161.8l-1.6-20.2h-11.6l-2.4,20.2h-22.9l17.1-129.2h30.8L417,161.8H390.2z M383.9,76.2
		l-4.8,42.5h8.1L383.9,76.2z"/>
	<path id="XMLID_15_" class="st0" d="M455.1,163.5c-19.7,0-33.3-12.3-33.3-25.4v-17.3H446v12.1c0,4.8,2.9,8.4,7.9,8.4
		c4.8,0,7.1-2.7,7.1-8.4c0-10.7-6.9-19.4-18.3-30.5c-11.6-11.6-19.5-25.2-19.5-39.9c0-17.6,11.6-31.5,32.5-31.5
		c17.1,0,30.4,12.3,30.4,25.4v17.3h-24.4V60.6c0-4.5-2.6-7.4-6-7.4c-3.4,0-6.8,2.9-6.8,7.4c0,9.7,2.7,12.9,15.7,28.1
		c10.3,12.1,22.1,24.9,22.1,43.3C486.7,148.4,475,163.5,455.1,163.5z"/>
	<path id="XMLID_17_" class="st0" d="M535.5,47.2h9v25.5h-23.7V47.2L538.4,31h7.3L535.5,47.2z"/>
	<path id="XMLID_19_" class="st0" d="M565.6,161.8V65.9h-13.1V51.7c10.3-1.8,17.1-8.7,19.1-19.1h20v129.2H565.6z"/>
	<path id="XMLID_21_" class="st0" d="M640.3,163.5c-17.1,0-29.9-12.3-29.9-25.4v-11.8h24.9v11.1c0,2.3,2.3,3.9,5,3.9s5-1.6,5-3.9
		v-26.8c-3.4,2.6-9.4,4-14.7,4c-11.5,0-20.2-8.9-20.2-17.8V56.4c0-13.1,12.8-25.4,29.9-25.4s29.9,12.3,29.9,25.4v81.7
		C670.2,151.2,657.4,163.5,640.3,163.5z M645.3,57c0-2.3-2.3-3.9-5-3.9s-5,1.6-5,3.9v35c0,2.1,2.3,3.9,5,3.9s5-1.8,5-3.9V57z"/>
</g>
</svg>